<svg xmlns="http://www.w3.org/2000/svg" viewBox="0 0 384 512"><!--!Font Awesome Free 6.7.2 by @fontawesome - https://fontawesome.com License - https://fontawesome.com/license/free Copyright 2024 Fonticons, Inc.--><path d="M368 32h-56a16 16 0 0 0 -16 16v48h-48V48a16 16 0 0 0 -16-16h-80a16 16 0 0 0 -16 16v48H88.1V48a16 16 0 0 0 -16-16H16A16 16 0 0 0 0 48v176l64 32c0 48.3-1.5 95-13.2 160h282.4C321.5 351 320 303.7 320 256l64-32V48a16 16 0 0 0 -16-16zM224 320h-64v-64a32 32 0 0 1 64 0zm144 128H16a16 16 0 0 0 -16 16v32a16 16 0 0 0 16 16h352a16 16 0 0 0 16-16v-32a16 16 0 0 0 -16-16z"/></svg>